<svg width="22" height="31" viewBox="0 0 22 31" fill="none" xmlns="http://www.w3.org/2000/svg">
<path d="M4.53459 30.5428V16.955C3.30924 16.6085 2.28236 15.9155 1.45393 14.876C0.624534 13.8365 0.209839 12.6238 0.209839 11.2378V0.842773H3.09301V11.2378H4.53459V0.842773H7.41776V11.2378H8.85934V0.842773H11.7425V11.2378C11.7425 12.6238 11.3278 13.8365 10.4984 14.876C9.66999 15.9155 8.64311 16.6085 7.41776 16.955V30.5428H4.53459ZM18.9504 30.5428V18.6628H14.6257V8.26777C14.6257 6.21352 15.3287 4.46271 16.7347 3.01533C18.1398 1.56696 19.8394 0.842773 21.8336 0.842773V30.5428H18.9504Z" fill="white"/>
</svg>
