<svg width="26" height="16" viewBox="0 0 26 16" fill="none" xmlns="http://www.w3.org/2000/svg">
<path d="M24.9254 3.97446L14.0293 0.626807C13.4356 0.444385 12.795 0.444385 12.2016 0.626807L1.30513 3.97446C0.385596 4.25688 0.385596 5.4729 1.30513 5.75532L3.20474 6.33892C2.78794 6.85415 2.53169 7.48267 2.5063 8.17095C2.13013 8.38657 1.86528 8.77563 1.86528 9.24009C1.86528 9.66118 2.08716 10.0155 2.40669 10.242L1.40942 14.7295C1.32271 15.1198 1.61958 15.4901 2.01919 15.4901H4.21099C4.61099 15.4901 4.90786 15.1198 4.82114 14.7295L3.82388 10.242C4.14341 10.0155 4.36528 9.66118 4.36528 9.24009C4.36528 8.78813 4.11255 8.41001 3.75356 8.19048C3.78325 7.60376 4.08325 7.08501 4.56177 6.7561L12.2012 9.10337C12.5551 9.21196 13.234 9.34751 14.029 9.10337L24.9254 5.75571C25.8454 5.4729 25.8454 4.25728 24.9254 3.97446ZM14.3961 10.2983C13.2817 10.6405 12.3321 10.4514 11.834 10.2983L6.16919 8.55806L5.61528 12.9901C5.61528 14.3709 8.9731 15.4901 13.1153 15.4901C17.2575 15.4901 20.6153 14.3709 20.6153 12.9901L20.0614 8.55767L14.3961 10.2983Z" fill="white"/>
</svg>
