<svg width="25" height="19" viewBox="0 0 25 19" fill="none" xmlns="http://www.w3.org/2000/svg">
<path d="M23.8281 0H23.4375V0.976562C23.4375 1.29883 23.1738 1.5625 22.8516 1.5625H20.8984C20.5762 1.5625 20.3125 1.29883 20.3125 0.976562V0H4.6875V0.976562C4.6875 1.29883 4.42383 1.5625 4.10156 1.5625H2.14844C1.82617 1.5625 1.5625 1.29883 1.5625 0.976562V0H1.17188C0.522461 0 0 0.522461 0 1.17188V17.5781C0 18.2275 0.522461 18.75 1.17188 18.75H1.5625V17.7734C1.5625 17.4512 1.82617 17.1875 2.14844 17.1875H4.10156C4.42383 17.1875 4.6875 17.4512 4.6875 17.7734V18.75H20.3125V17.7734C20.3125 17.4512 20.5762 17.1875 20.8984 17.1875H22.8516C23.1738 17.1875 23.4375 17.4512 23.4375 17.7734V18.75H23.8281C24.4775 18.75 25 18.2275 25 17.5781V1.17188C25 0.522461 24.4775 0 23.8281 0ZM4.6875 15.0391C4.6875 15.3613 4.42383 15.625 4.10156 15.625H2.14844C1.82617 15.625 1.5625 15.3613 1.5625 15.0391V13.0859C1.5625 12.7637 1.82617 12.5 2.14844 12.5H4.10156C4.42383 12.5 4.6875 12.7637 4.6875 13.0859V15.0391ZM4.6875 10.3516C4.6875 10.6738 4.42383 10.9375 4.10156 10.9375H2.14844C1.82617 10.9375 1.5625 10.6738 1.5625 10.3516V8.39844C1.5625 8.07617 1.82617 7.8125 2.14844 7.8125H4.10156C4.42383 7.8125 4.6875 8.07617 4.6875 8.39844V10.3516ZM4.6875 5.66406C4.6875 5.98633 4.42383 6.25 4.10156 6.25H2.14844C1.82617 6.25 1.5625 5.98633 1.5625 5.66406V3.71094C1.5625 3.38867 1.82617 3.125 2.14844 3.125H4.10156C4.42383 3.125 4.6875 3.38867 4.6875 3.71094V5.66406ZM17.9688 15.8203C17.9688 16.1426 17.7051 16.4062 17.3828 16.4062H7.61719C7.29492 16.4062 7.03125 16.1426 7.03125 15.8203V11.1328C7.03125 10.8105 7.29492 10.5469 7.61719 10.5469H17.3828C17.7051 10.5469 17.9688 10.8105 17.9688 11.1328V15.8203ZM17.9688 7.61719C17.9688 7.93945 17.7051 8.20312 17.3828 8.20312H7.61719C7.29492 8.20312 7.03125 7.93945 7.03125 7.61719V2.92969C7.03125 2.60742 7.29492 2.34375 7.61719 2.34375H17.3828C17.7051 2.34375 17.9688 2.60742 17.9688 2.92969V7.61719ZM23.4375 15.0391C23.4375 15.3613 23.1738 15.625 22.8516 15.625H20.8984C20.5762 15.625 20.3125 15.3613 20.3125 15.0391V13.0859C20.3125 12.7637 20.5762 12.5 20.8984 12.5H22.8516C23.1738 12.5 23.4375 12.7637 23.4375 13.0859V15.0391ZM23.4375 10.3516C23.4375 10.6738 23.1738 10.9375 22.8516 10.9375H20.8984C20.5762 10.9375 20.3125 10.6738 20.3125 10.3516V8.39844C20.3125 8.07617 20.5762 7.8125 20.8984 7.8125H22.8516C23.1738 7.8125 23.4375 8.07617 23.4375 8.39844V10.3516ZM23.4375 5.66406C23.4375 5.98633 23.1738 6.25 22.8516 6.25H20.8984C20.5762 6.25 20.3125 5.98633 20.3125 5.66406V3.71094C20.3125 3.38867 20.5762 3.125 20.8984 3.125H22.8516C23.1738 3.125 23.4375 3.38867 23.4375 3.71094V5.66406Z" fill="white"/>
</svg>
