<svg width="26" height="23" viewBox="0 0 26 23" fill="none" xmlns="http://www.w3.org/2000/svg">
<path d="M2.17773 20.9431C2.17773 21.8074 2.87598 22.5056 3.74023 22.5056H22.4902C23.3545 22.5056 24.0527 21.8074 24.0527 20.9431V6.88062H2.17773V20.9431ZM9.99023 10.5916C9.99023 10.2693 10.2539 10.0056 10.5762 10.0056H15.6543C15.9766 10.0056 16.2402 10.2693 16.2402 10.5916V10.9822C16.2402 11.3044 15.9766 11.5681 15.6543 11.5681H10.5762C10.2539 11.5681 9.99023 11.3044 9.99023 10.9822V10.5916ZM24.0527 0.630615H2.17773C1.31348 0.630615 0.615234 1.32886 0.615234 2.19312V4.53687C0.615234 4.96655 0.966797 5.31812 1.39648 5.31812H24.834C25.2637 5.31812 25.6152 4.96655 25.6152 4.53687V2.19312C25.6152 1.32886 24.917 0.630615 24.0527 0.630615Z" fill="white"/>
</svg>
