<svg width="26" height="23" viewBox="0 0 26 23" fill="none" xmlns="http://www.w3.org/2000/svg">
<path d="M13.1152 10.0057C9.2378 10.0057 3.74024 15.9999 3.74024 19.7835C3.74024 21.4876 5.04933 22.5057 7.24317 22.5057C9.62794 22.5057 11.2026 21.2811 13.1152 21.2811C15.0444 21.2811 16.6235 22.5057 18.9873 22.5057C21.1812 22.5057 22.4902 21.4876 22.4902 19.7835C22.4902 15.9999 16.9927 10.0057 13.1152 10.0057ZM5.92384 9.38999C5.41602 7.6981 3.85157 6.60239 2.4297 6.94224C1.00782 7.28208 0.267098 8.92905 0.774911 10.6209C1.28272 12.3128 2.84718 13.4085 4.26905 13.0687C5.69093 12.7289 6.43165 11.0819 5.92384 9.38999ZM10.0606 8.37534C11.5713 7.97788 12.3272 5.93687 11.749 3.81675C11.1709 1.69663 9.47755 0.300637 7.96681 0.698098C6.45606 1.09556 5.7002 3.13657 6.27833 5.25669C6.85645 7.37681 8.5503 8.77329 10.0606 8.37534ZM23.8003 6.94273C22.3784 6.60288 20.8145 7.69859 20.3062 9.39048C19.7983 11.0824 20.5391 12.7293 21.9609 13.0692C23.3828 13.409 24.9468 12.3133 25.4551 10.6214C25.9629 8.92954 25.2222 7.28257 23.8003 6.94273ZM16.1699 8.37534C17.6807 8.7728 19.374 7.37681 19.9522 5.25669C20.5303 3.13657 19.7744 1.09605 18.2637 0.698098C16.7529 0.300149 15.0596 1.69663 14.4815 3.81675C13.9033 5.93687 14.6592 7.97788 16.1699 8.37534Z" fill="white"/>
</svg>
