<svg width="23" height="26" viewBox="0 0 23 26" fill="none" xmlns="http://www.w3.org/2000/svg">
<path d="M21.4668 23.5056H20.4902V1.23999C20.4902 0.592773 19.9656 0.0681152 19.3184 0.0681152H2.91211C2.26489 0.0681152 1.74023 0.592773 1.74023 1.23999V23.5056H0.763672C0.440088 23.5056 0.177734 23.768 0.177734 24.0916V25.0681H22.0527V24.0916C22.0527 23.768 21.7904 23.5056 21.4668 23.5056ZM6.42773 3.77905C6.42773 3.45547 6.69009 3.19312 7.01367 3.19312H8.9668C9.29038 3.19312 9.55273 3.45547 9.55273 3.77905V5.73218C9.55273 6.05576 9.29038 6.31812 8.9668 6.31812H7.01367C6.69009 6.31812 6.42773 6.05576 6.42773 5.73218V3.77905ZM6.42773 8.46655C6.42773 8.14297 6.69009 7.88062 7.01367 7.88062H8.9668C9.29038 7.88062 9.55273 8.14297 9.55273 8.46655V10.4197C9.55273 10.7433 9.29038 11.0056 8.9668 11.0056H7.01367C6.69009 11.0056 6.42773 10.7433 6.42773 10.4197V8.46655ZM8.9668 15.6931H7.01367C6.69009 15.6931 6.42773 15.4308 6.42773 15.1072V13.1541C6.42773 12.8305 6.69009 12.5681 7.01367 12.5681H8.9668C9.29038 12.5681 9.55273 12.8305 9.55273 13.1541V15.1072C9.55273 15.4308 9.29038 15.6931 8.9668 15.6931ZM12.6777 23.5056H9.55273V19.4041C9.55273 19.0805 9.81509 18.8181 10.1387 18.8181H12.0918C12.4154 18.8181 12.6777 19.0805 12.6777 19.4041V23.5056ZM15.8027 15.1072C15.8027 15.4308 15.5404 15.6931 15.2168 15.6931H13.2637C12.9401 15.6931 12.6777 15.4308 12.6777 15.1072V13.1541C12.6777 12.8305 12.9401 12.5681 13.2637 12.5681H15.2168C15.5404 12.5681 15.8027 12.8305 15.8027 13.1541V15.1072ZM15.8027 10.4197C15.8027 10.7433 15.5404 11.0056 15.2168 11.0056H13.2637C12.9401 11.0056 12.6777 10.7433 12.6777 10.4197V8.46655C12.6777 8.14297 12.9401 7.88062 13.2637 7.88062H15.2168C15.5404 7.88062 15.8027 8.14297 15.8027 8.46655V10.4197ZM15.8027 5.73218C15.8027 6.05576 15.5404 6.31812 15.2168 6.31812H13.2637C12.9401 6.31812 12.6777 6.05576 12.6777 5.73218V3.77905C12.6777 3.45547 12.9401 3.19312 13.2637 3.19312H15.2168C15.5404 3.19312 15.8027 3.45547 15.8027 3.77905V5.73218Z" fill="white"/>
</svg>
