<svg width="26" height="23" viewBox="0 0 26 23" fill="none" xmlns="http://www.w3.org/2000/svg">
<path d="M24.9208 10.1793H23.6404C23.2585 9.3112 22.7029 8.54297 22.0171 7.90061L22.8375 4.6237H21.4486C20.1725 4.6237 19.0441 5.20964 18.2802 6.11241C17.9503 6.06467 17.6248 6.01259 17.2819 6.01259H11.7263C8.36697 6.01259 5.56749 8.39974 4.92079 11.5681H3.04579C2.40343 11.5681 1.89561 10.9822 2.02582 10.3181C2.12131 9.82335 2.58572 9.48481 3.08919 9.48481H3.13259C3.27582 9.48481 3.39301 9.36762 3.39301 9.22439V8.35634C3.39301 8.21311 3.27582 8.09592 3.13259 8.09592C1.89561 8.09592 0.793184 8.98134 0.636934 10.2053C0.445962 11.6897 1.60048 12.957 3.04579 12.957H4.7819C4.7819 15.2227 5.88433 17.2148 7.55968 18.4822V21.9848C7.55968 22.3668 7.87218 22.6793 8.25412 22.6793H11.0319C11.4138 22.6793 11.7263 22.3668 11.7263 21.9848V19.9015H17.2819V21.9848C17.2819 22.3668 17.5944 22.6793 17.9763 22.6793H20.7541C21.1361 22.6793 21.4486 22.3668 21.4486 21.9848V18.4822C21.9607 18.0959 22.4164 17.6402 22.8071 17.1237H24.9208C25.3027 17.1237 25.6152 16.8112 25.6152 16.4293V10.8737C25.6152 10.4918 25.3027 10.1793 24.9208 10.1793ZM19.3652 12.957C18.9833 12.957 18.6708 12.6445 18.6708 12.2626C18.6708 11.8806 18.9833 11.5681 19.3652 11.5681C19.7472 11.5681 20.0597 11.8806 20.0597 12.2626C20.0597 12.6445 19.7472 12.957 19.3652 12.957ZM11.7263 4.6237H17.2819C17.5163 4.6237 17.7463 4.64106 17.972 4.65842C17.972 4.6454 17.9763 4.63672 17.9763 4.6237C17.9763 2.32335 16.11 0.457031 13.8097 0.457031C11.5093 0.457031 9.64301 2.32335 9.64301 4.6237C9.64301 4.71484 9.66471 4.80165 9.66905 4.89279C10.3288 4.72352 11.0145 4.6237 11.7263 4.6237Z" fill="white"/>
</svg>
