<svg width="25" height="25" viewBox="0 0 25 25" fill="none" xmlns="http://www.w3.org/2000/svg">
<path d="M23.5166 3.01245C23.2822 2.12378 22.584 1.42554 21.6953 1.18628C20.5283 0.873779 18.707 0.502686 16.5781 0.45874L24.2246 8.11499C24.1855 5.99097 23.8242 4.17944 23.5166 3.01245ZM0.713867 22.1238C0.948242 23.0125 1.64648 23.7107 2.53516 23.95C3.70215 24.2625 5.52344 24.6335 7.65234 24.6775L0.00585938 17.0212C0.0449219 19.1453 0.40625 20.9568 0.713867 22.1238ZM0.210937 13.906L10.7676 24.4822C17.2373 23.5349 22.916 18.6863 24.0244 11.2302L13.4629 0.654053C6.99316 1.60132 1.31445 6.44995 0.210937 13.906ZM15.7041 7.87085C15.8555 7.71948 16.1045 7.71948 16.2559 7.87085L16.8076 8.42261C16.959 8.57397 16.959 8.823 16.8076 8.97436L15.4258 10.3562L16.8076 11.738C16.959 11.8894 16.959 12.1384 16.8076 12.2898L16.2559 12.8416C16.1045 12.9929 15.8555 12.9929 15.7041 12.8416L14.3223 11.4597L13.2188 12.5681L14.6006 13.95C14.752 14.1013 14.752 14.3503 14.6006 14.5017L14.0488 15.0535C13.8975 15.2048 13.6484 15.2048 13.4971 15.0535L12.1152 13.6716L11.0117 14.7751L12.3936 16.157C12.5449 16.3083 12.5449 16.5574 12.3936 16.7087L11.8418 17.2605C11.6904 17.4119 11.4414 17.4119 11.29 17.2605L9.9082 15.8787L8.52637 17.2605C8.375 17.4119 8.12598 17.4119 7.97461 17.2605L7.42285 16.7087C7.27148 16.5574 7.27148 16.3083 7.42285 16.157L8.80469 14.7751L7.42285 13.3982C7.27148 13.2468 7.27148 12.9978 7.42285 12.8464L7.97461 12.2947C8.12598 12.1433 8.375 12.1433 8.52637 12.2947L9.9082 13.6765L11.0117 12.573L9.62988 11.1912C9.47852 11.0398 9.47852 10.7908 9.62988 10.6394L10.1816 10.0876C10.333 9.93628 10.582 9.93628 10.7334 10.0876L12.1152 11.4695L13.2188 10.366L11.8369 8.98413C11.6855 8.83276 11.6855 8.58374 11.8369 8.43237L12.3887 7.88062C12.54 7.72925 12.7891 7.72925 12.9404 7.88062L14.3223 9.26245L15.7041 7.87085Z" fill="white"/>
</svg>
