<svg width="26" height="17" viewBox="0 0 26 17" fill="none" xmlns="http://www.w3.org/2000/svg">
<path d="M6.17079 4.40153H20.0597V12.7349H6.17079V4.40153ZM23.5319 8.5682C23.5319 9.7188 24.4646 10.6515 25.6152 10.6515V14.8182C25.6152 15.9688 24.6825 16.9015 23.5319 16.9015H2.69857C1.54796 16.9015 0.615234 15.9688 0.615234 14.8182V10.6515C1.76584 10.6515 2.69857 9.7188 2.69857 8.5682C2.69857 7.41759 1.76584 6.48486 0.615234 6.48486V2.3182C0.615234 1.16759 1.54796 0.234863 2.69857 0.234863H23.5319C24.6825 0.234863 25.6152 1.16759 25.6152 2.3182V6.48486C24.4646 6.48486 23.5319 7.41759 23.5319 8.5682ZM21.4486 4.05431C21.4486 3.479 20.9822 3.01264 20.4069 3.01264H5.82357C5.24826 3.01264 4.7819 3.479 4.7819 4.05431V13.0821C4.7819 13.6574 5.24826 14.1238 5.82357 14.1238H20.4069C20.9822 14.1238 21.4486 13.6574 21.4486 13.0821V4.05431Z" fill="white"/>
</svg>
