<svg width="20" height="26" viewBox="0 0 20 26" fill="none" xmlns="http://www.w3.org/2000/svg">
<path d="M19.1484 5.19507L14.3682 0.409912C14.1484 0.190186 13.8506 0.0681152 13.5381 0.0681152H13.2402V6.31812H19.4902V6.02026C19.4902 5.71265 19.3682 5.41479 19.1484 5.19507ZM11.6777 6.70874V0.0681152H1.91211C1.2627 0.0681152 0.740234 0.590576 0.740234 1.23999V23.8962C0.740234 24.5457 1.2627 25.0681 1.91211 25.0681H18.3184C18.9678 25.0681 19.4902 24.5457 19.4902 23.8962V7.88062H12.8496C12.2051 7.88062 11.6777 7.35327 11.6777 6.70874ZM3.86523 3.58374C3.86523 3.36792 4.04004 3.19312 4.25586 3.19312H8.16211C8.37793 3.19312 8.55273 3.36792 8.55273 3.58374V4.36499C8.55273 4.58081 8.37793 4.75562 8.16211 4.75562H4.25586C4.04004 4.75562 3.86523 4.58081 3.86523 4.36499V3.58374ZM3.86523 7.48999V6.70874C3.86523 6.49292 4.04004 6.31812 4.25586 6.31812H8.16211C8.37793 6.31812 8.55273 6.49292 8.55273 6.70874V7.48999C8.55273 7.70581 8.37793 7.88062 8.16211 7.88062H4.25586C4.04004 7.88062 3.86523 7.70581 3.86523 7.48999ZM10.8965 20.3748V21.5525C10.8965 21.7683 10.7217 21.9431 10.5059 21.9431H9.72461C9.50879 21.9431 9.33398 21.7683 9.33398 21.5525V20.3665C8.78271 20.3381 8.24658 20.1458 7.80225 19.8123C7.61182 19.6692 7.60205 19.384 7.77441 19.2195L8.34814 18.6721C8.4834 18.5432 8.68457 18.5374 8.84277 18.6365C9.03174 18.7546 9.24609 18.8181 9.46875 18.8181H10.8413C11.1587 18.8181 11.4175 18.5291 11.4175 18.1741C11.4175 17.8835 11.2412 17.6277 10.9893 17.5525L8.79199 16.8933C7.88428 16.6208 7.25 15.7498 7.25 14.7747C7.25 13.5774 8.18018 12.6047 9.3335 12.574V11.3962C9.3335 11.1804 9.5083 11.0056 9.72412 11.0056H10.5054C10.7212 11.0056 10.896 11.1804 10.896 11.3962V12.5823C11.4473 12.6106 11.9834 12.8025 12.4277 13.1365C12.6182 13.2795 12.6279 13.5647 12.4556 13.7292L11.8818 14.2766C11.7466 14.4055 11.5454 14.4114 11.3872 14.3123C11.1982 14.1936 10.9839 14.1306 10.7612 14.1306H9.38867C9.07129 14.1306 8.8125 14.4197 8.8125 14.7747C8.8125 15.0652 8.98877 15.321 9.24072 15.3962L11.438 16.0554C12.3457 16.3279 12.98 17.199 12.98 18.1741C12.98 19.3718 12.0498 20.344 10.8965 20.3748Z" fill="white"/>
</svg>
