<svg width="23" height="26" viewBox="0 0 23 26" fill="none" xmlns="http://www.w3.org/2000/svg">
<path d="M22.0527 4.75562V17.2556C22.0527 19.7856 19.0437 21.9431 15.704 21.9431L18.7792 24.3709C19.0696 24.6002 18.9063 25.0681 18.5371 25.0681H3.69336C3.32334 25.0681 3.16152 24.5997 3.45132 24.3709L6.52646 21.9431C3.19629 21.9431 0.177734 19.7924 0.177734 17.2556V4.75562C0.177734 2.1668 3.30273 0.0681152 6.42773 0.0681152H15.8027C18.9766 0.0681152 22.0527 2.1668 22.0527 4.75562ZM19.709 11.3962V5.92749C19.709 5.28027 19.1843 4.75562 18.5371 4.75562H3.69336C3.04614 4.75562 2.52148 5.28027 2.52148 5.92749V11.3962C2.52148 12.0435 3.04614 12.5681 3.69336 12.5681H18.5371C19.1843 12.5681 19.709 12.0435 19.709 11.3962ZM11.1152 14.5212C9.60508 14.5212 8.38086 15.7455 8.38086 17.2556C8.38086 18.7658 9.60508 19.99 11.1152 19.99C12.6254 19.99 13.8496 18.7658 13.8496 17.2556C13.8496 15.7455 12.6254 14.5212 11.1152 14.5212Z" fill="white"/>
</svg>
