<svg width="26" height="23" viewBox="0 0 26 23" fill="none" xmlns="http://www.w3.org/2000/svg">
<path d="M21.4486 8.79036H16.4881L11.9264 0.806858C11.8656 0.700567 11.7778 0.612235 11.6718 0.550804C11.5659 0.489373 11.4456 0.457024 11.3231 0.457031L8.48026 0.457031C8.01889 0.457031 7.68599 0.898437 7.81272 1.34201L9.94076 8.79036H5.47635L3.60135 6.29036C3.47028 6.11545 3.26411 6.01259 3.0458 6.01259H1.31012C0.858297 6.01259 0.5267 6.43707 0.636509 6.87543L2.00413 11.5681L0.636509 16.2608C0.5267 16.6992 0.858297 17.1237 1.31012 17.1237H3.0458C3.26455 17.1237 3.47028 17.0208 3.60135 16.8459L5.47635 14.3459H9.94076L7.81272 21.7938C7.68599 22.2374 8.01889 22.6793 8.48026 22.6793H11.3231C11.5723 22.6793 11.8023 22.5456 11.926 22.3294L16.4881 14.3459H21.4486C22.9829 14.3459 25.6152 13.1024 25.6152 11.5681C25.6152 10.0339 22.9829 8.79036 21.4486 8.79036Z" fill="white"/>
</svg>
