<svg width="46" height="41" viewBox="0 0 46 41" fill="none" xmlns="http://www.w3.org/2000/svg">
<path d="M23 14.9999V22.9999M23 30.9999H23.02M19.58 4.71992L2.64004 32.9999C2.29078 33.6048 2.10598 34.2905 2.10402 34.989C2.10206 35.6874 2.28302 36.3742 2.62889 36.981C2.97477 37.5878 3.47349 38.0934 4.07546 38.4476C4.67742 38.8018 5.36164 38.9922 6.06004 38.9999H39.94C40.6384 38.9922 41.3227 38.8018 41.9246 38.4476C42.5266 38.0934 43.0253 37.5878 43.3712 36.981C43.7171 36.3742 43.898 35.6874 43.8961 34.989C43.8941 34.2905 43.7093 33.6048 43.36 32.9999L26.42 4.71992C26.0635 4.13213 25.5615 3.64616 24.9624 3.30889C24.3634 2.97162 23.6875 2.79443 23 2.79443C22.3126 2.79443 21.6367 2.97162 21.0377 3.30889C20.4386 3.64616 19.9366 4.13213 19.58 4.71992Z" stroke="#FF3D3D" stroke-width="4" stroke-linecap="round" stroke-linejoin="round"/>
</svg>
