<svg width="26" height="20" viewBox="0 0 26 20" fill="none" xmlns="http://www.w3.org/2000/svg">
<path d="M20.7175 18.7585H16.616C16.2937 18.7585 16.03 18.4949 16.03 18.1726V16.2195C16.03 15.8972 16.2937 15.6335 16.616 15.6335H20.7175C21.5818 15.6335 22.28 14.9353 22.28 14.071V4.69604C22.28 3.83179 21.5818 3.13354 20.7175 3.13354H16.616C16.2937 3.13354 16.03 2.86987 16.03 2.54761V0.594482C16.03 0.272217 16.2937 0.00854492 16.616 0.00854492H20.7175C23.3054 0.00854492 25.405 2.10815 25.405 4.69604V14.071C25.405 16.6589 23.3054 18.7585 20.7175 18.7585ZM18.4226 8.94409L10.2195 0.740967C9.48706 0.00854492 8.21753 0.52124 8.21753 1.57104V6.25854H1.5769C0.92749 6.25854 0.405029 6.78101 0.405029 7.43042V12.1179C0.405029 12.7673 0.92749 13.2898 1.5769 13.2898H8.21753V17.9773C8.21753 19.0271 9.48706 19.5398 10.2195 18.8074L18.4226 10.6042C18.8767 10.1453 18.8767 9.40308 18.4226 8.94409Z" fill="#ff3d3d"/>
</svg>
