<svg width="17" height="15" viewBox="0 0 17 15" fill="none" xmlns="http://www.w3.org/2000/svg">
<path d="M15.7638 8.42105H9.87976V13.6842C9.87976 13.9634 9.75578 14.2311 9.53508 14.4285C9.31439 14.6259 9.01506 14.7368 8.70296 14.7368C8.39085 14.7368 8.09152 14.6259 7.87083 14.4285C7.65014 14.2311 7.52615 13.9634 7.52615 13.6842V8.42105H1.64214C1.33003 8.42105 1.0307 8.31015 0.81001 8.11275C0.589317 7.91534 0.465332 7.6476 0.465332 7.36842C0.465332 7.08925 0.589317 6.82151 0.81001 6.6241C1.0307 6.42669 1.33003 6.31579 1.64214 6.31579H7.52615V1.05263C7.52615 0.773456 7.65014 0.505715 7.87083 0.308308C8.09152 0.110902 8.39085 0 8.70296 0C9.01506 0 9.31439 0.110902 9.53508 0.308308C9.75578 0.505715 9.87976 0.773456 9.87976 1.05263V6.31579H15.7638C16.0759 6.31579 16.3752 6.42669 16.5959 6.6241C16.8166 6.82151 16.9406 7.08925 16.9406 7.36842C16.9406 7.6476 16.8166 7.91534 16.5959 8.11275C16.3752 8.31015 16.0759 8.42105 15.7638 8.42105Z" fill="#b0b0b0"/>
</svg>
