<svg width="23" height="22" viewBox="0 0 23 22" fill="none" xmlns="http://www.w3.org/2000/svg">
<path d="M20.4902 8.66907H13.459V1.63782C13.459 0.775024 12.7593 0.0753174 11.8965 0.0753174H10.334C9.47119 0.0753174 8.77148 0.775024 8.77148 1.63782V8.66907H1.74023C0.877441 8.66907 0.177734 9.36877 0.177734 10.2316V11.7941C0.177734 12.6569 0.877441 13.3566 1.74023 13.3566H8.77148V20.3878C8.77148 21.2506 9.47119 21.9503 10.334 21.9503H11.8965C12.7593 21.9503 13.459 21.2506 13.459 20.3878V13.3566H20.4902C21.353 13.3566 22.0527 12.6569 22.0527 11.7941V10.2316C22.0527 9.36877 21.353 8.66907 20.4902 8.66907Z" fill="#878787"/>
</svg>
