<svg width="26" height="23" viewBox="0 0 26 23" fill="none" xmlns="http://www.w3.org/2000/svg">
<path d="M25.552 19.7015C26.3531 21.0902 25.3475 22.826 23.7474 22.826H2.91906C1.3159 22.826 0.31494 21.0875 1.11451 19.7015L11.5288 1.64478C12.3303 0.255496 14.3379 0.258013 15.1379 1.64478L25.552 19.7015ZM13.3334 15.9683C12.2307 15.9683 11.3369 16.8622 11.3369 17.9649C11.3369 19.0675 12.2307 19.9614 13.3334 19.9614C14.436 19.9614 15.3299 19.0675 15.3299 17.9649C15.3299 16.8622 14.436 15.9683 13.3334 15.9683ZM11.4379 8.79187L11.7598 14.6946C11.7749 14.9709 12.0033 15.1871 12.2799 15.1871H14.3869C14.6635 15.1871 14.8919 14.9709 14.907 14.6946L15.2289 8.79187C15.2452 8.49352 15.0076 8.24265 14.7089 8.24265H11.9579C11.6591 8.24265 11.4216 8.49352 11.4379 8.79187Z" fill="#ff3d3d"/>
</svg>
