<svg width="23" height="26" viewBox="0 0 23 26" fill="none" xmlns="http://www.w3.org/2000/svg">
<path d="M0.177734 23.1691C0.177734 24.463 1.22754 25.5128 2.52148 25.5128H19.709C21.0029 25.5128 22.0527 24.463 22.0527 23.1691V9.88782H0.177734V23.1691ZM15.8027 13.5988C15.8027 13.2765 16.0664 13.0128 16.3887 13.0128H18.3418C18.6641 13.0128 18.9277 13.2765 18.9277 13.5988V15.5519C18.9277 15.8741 18.6641 16.1378 18.3418 16.1378H16.3887C16.0664 16.1378 15.8027 15.8741 15.8027 15.5519V13.5988ZM15.8027 19.8488C15.8027 19.5265 16.0664 19.2628 16.3887 19.2628H18.3418C18.6641 19.2628 18.9277 19.5265 18.9277 19.8488V21.8019C18.9277 22.1241 18.6641 22.3878 18.3418 22.3878H16.3887C16.0664 22.3878 15.8027 22.1241 15.8027 21.8019V19.8488ZM9.55273 13.5988C9.55273 13.2765 9.81641 13.0128 10.1387 13.0128H12.0918C12.4141 13.0128 12.6777 13.2765 12.6777 13.5988V15.5519C12.6777 15.8741 12.4141 16.1378 12.0918 16.1378H10.1387C9.81641 16.1378 9.55273 15.8741 9.55273 15.5519V13.5988ZM9.55273 19.8488C9.55273 19.5265 9.81641 19.2628 10.1387 19.2628H12.0918C12.4141 19.2628 12.6777 19.5265 12.6777 19.8488V21.8019C12.6777 22.1241 12.4141 22.3878 12.0918 22.3878H10.1387C9.81641 22.3878 9.55273 22.1241 9.55273 21.8019V19.8488ZM3.30273 13.5988C3.30273 13.2765 3.56641 13.0128 3.88867 13.0128H5.8418C6.16406 13.0128 6.42773 13.2765 6.42773 13.5988V15.5519C6.42773 15.8741 6.16406 16.1378 5.8418 16.1378H3.88867C3.56641 16.1378 3.30273 15.8741 3.30273 15.5519V13.5988ZM3.30273 19.8488C3.30273 19.5265 3.56641 19.2628 3.88867 19.2628H5.8418C6.16406 19.2628 6.42773 19.5265 6.42773 19.8488V21.8019C6.42773 22.1241 6.16406 22.3878 5.8418 22.3878H3.88867C3.56641 22.3878 3.30273 22.1241 3.30273 21.8019V19.8488ZM19.709 3.63782H17.3652V1.29407C17.3652 0.86438 17.0137 0.512817 16.584 0.512817H15.0215C14.5918 0.512817 14.2402 0.86438 14.2402 1.29407V3.63782H7.99023V1.29407C7.99023 0.86438 7.63867 0.512817 7.20898 0.512817H5.64648C5.2168 0.512817 4.86523 0.86438 4.86523 1.29407V3.63782H2.52148C1.22754 3.63782 0.177734 4.68762 0.177734 5.98157V8.32532H22.0527V5.98157C22.0527 4.68762 21.0029 3.63782 19.709 3.63782Z" fill="#878787"/>
</svg>
