<svg width="26" height="26" viewBox="0 0 26 26" fill="none" xmlns="http://www.w3.org/2000/svg">
<path d="M1.37146 14.1453C0.941772 14.1453 0.59021 14.4968 0.59021 14.9265V16.489C0.59021 16.9187 0.941772 17.2703 1.37146 17.2703H6.84021V14.1453H1.37146ZM25.2484 5.20972L20.4681 0.424561C20.2484 0.204834 19.9506 0.0827637 19.6381 0.0827637H19.3402V6.33276H25.5902V6.03491C25.5902 5.72729 25.4681 5.42944 25.2484 5.20972ZM17.7777 6.72339V0.0827637H8.01208C7.36267 0.0827637 6.84021 0.605225 6.84021 1.25464V14.1453H13.0902V10.9617C13.0902 10.2634 13.9349 9.91675 14.4281 10.4099L19.0961 15.1218C19.4183 15.449 19.4183 15.9714 19.0961 16.2937L14.4232 21.0007C13.9301 21.4939 13.0853 21.1472 13.0853 20.449V17.2703H6.84021V23.9109C6.84021 24.5603 7.36267 25.0828 8.01208 25.0828H24.4183C25.0677 25.0828 25.5902 24.5603 25.5902 23.9109V7.89526H18.9496C18.3051 7.89526 17.7777 7.36792 17.7777 6.72339Z" fill="#b0b0b0"/>
</svg>
