<svg width="26" height="26" viewBox="0 0 26 26" fill="none" xmlns="http://www.w3.org/2000/svg">
<path d="M1.39648 14.5753C0.966797 14.5753 0.615234 14.9269 0.615234 15.3566V16.9191C0.615234 17.3488 0.966797 17.7003 1.39648 17.7003H6.86523V14.5753H1.39648ZM25.2734 5.63977L20.4932 0.854614C20.2734 0.634888 19.9756 0.512817 19.6631 0.512817H19.3652V6.76282H25.6152V6.46497C25.6152 6.15735 25.4932 5.8595 25.2734 5.63977ZM17.8027 7.15344V0.512817H8.03711C7.3877 0.512817 6.86523 1.03528 6.86523 1.68469V14.5753H13.1152V11.3917C13.1152 10.6935 13.96 10.3468 14.4531 10.84L19.1211 15.5519C19.4434 15.879 19.4434 16.4015 19.1211 16.7238L14.4482 21.4308C13.9551 21.9239 13.1104 21.5773 13.1104 20.879V17.7003H6.86523V24.3409C6.86523 24.9904 7.3877 25.5128 8.03711 25.5128H24.4434C25.0928 25.5128 25.6152 24.9904 25.6152 24.3409V8.32532H18.9746C18.3301 8.32532 17.8027 7.79797 17.8027 7.15344Z" fill="#878787"/>
</svg>
