<svg width="8" height="25" viewBox="0 0 8 25" fill="none" xmlns="http://www.w3.org/2000/svg">
<path d="M3.6355 8.98779C5.57886 8.98779 7.15112 10.5601 7.15112 12.5034C7.15112 14.4468 5.57886 16.019 3.6355 16.019C1.69214 16.019 0.119873 14.4468 0.119873 12.5034C0.119873 10.5601 1.69214 8.98779 3.6355 8.98779ZM0.119873 3.90967C0.119873 5.85303 1.69214 7.42529 3.6355 7.42529C5.57886 7.42529 7.15112 5.85303 7.15112 3.90967C7.15112 1.96631 5.57886 0.394043 3.6355 0.394043C1.69214 0.394043 0.119873 1.96631 0.119873 3.90967ZM0.119873 21.0972C0.119873 23.0405 1.69214 24.6128 3.6355 24.6128C5.57886 24.6128 7.15112 23.0405 7.15112 21.0972C7.15112 19.1538 5.57886 17.5815 3.6355 17.5815C1.69214 17.5815 0.119873 19.1538 0.119873 21.0972Z" fill="white"/>
</svg>
