<svg width="8" height="26" viewBox="0 0 8 26" fill="none" xmlns="http://www.w3.org/2000/svg">
<path d="M4.11523 9.49719C6.05859 9.49719 7.63086 11.0695 7.63086 13.0128C7.63086 14.9562 6.05859 16.5284 4.11523 16.5284C2.17188 16.5284 0.599609 14.9562 0.599609 13.0128C0.599609 11.0695 2.17188 9.49719 4.11523 9.49719ZM0.599609 4.41907C0.599609 6.36243 2.17188 7.93469 4.11523 7.93469C6.05859 7.93469 7.63086 6.36243 7.63086 4.41907C7.63086 2.47571 6.05859 0.903442 4.11523 0.903442C2.17188 0.903442 0.599609 2.47571 0.599609 4.41907ZM0.599609 21.6066C0.599609 23.5499 2.17188 25.1222 4.11523 25.1222C6.05859 25.1222 7.63086 23.5499 7.63086 21.6066C7.63086 19.6632 6.05859 18.0909 4.11523 18.0909C2.17188 18.0909 0.599609 19.6632 0.599609 21.6066Z" fill="#878787"/>
</svg>
