<svg width="20" height="23" viewBox="0 0 20 23" fill="none" xmlns="http://www.w3.org/2000/svg">
<path d="M18.171 22.2857L11.5286 14.7857C11.0015 15.2619 10.3952 15.6389 9.7099 15.9167C9.02458 16.1945 8.29533 16.3334 7.52215 16.3334C5.60677 16.3334 3.9859 15.5842 2.65954 14.0857C1.33318 12.5873 0.669648 10.7572 0.668945 8.59527C0.668945 6.43257 1.33248 4.60242 2.65954 3.1048C3.9866 1.60718 5.60747 0.857971 7.52215 0.857178C9.43753 0.857178 11.0584 1.60638 12.3848 3.1048C13.7111 4.60321 14.3746 6.43337 14.3754 8.59527C14.3754 9.46829 14.2523 10.2917 14.0063 11.0655C13.7603 11.8393 13.4264 12.5238 13.0047 13.1191L19.647 20.6191L18.171 22.2857ZM7.52215 13.9524C8.84007 13.9524 9.96048 13.4314 10.8834 12.3893C11.8063 11.3473 12.2674 10.0826 12.2667 8.59527C12.2667 7.10718 11.8052 5.8421 10.8823 4.80003C9.95943 3.75797 8.83937 3.23734 7.52215 3.23813C6.20422 3.23813 5.08381 3.75916 4.16092 4.80123C3.23802 5.84329 2.77692 7.10797 2.77762 8.59527C2.77762 10.0834 3.23907 11.3484 4.16197 12.3905C5.08487 13.4326 6.20493 13.9532 7.52215 13.9524Z" fill="#878787"/>
</svg>
