<svg width="26" height="26" viewBox="0 0 26 26" fill="none" xmlns="http://www.w3.org/2000/svg">
<path d="M25.2734 22.129L20.4053 17.2609C20.1855 17.0411 19.8877 16.9191 19.5752 16.9191H18.7793C20.127 15.1954 20.9277 13.0275 20.9277 10.6691C20.9277 5.05872 16.3818 0.512817 10.7715 0.512817C5.16113 0.512817 0.615234 5.05872 0.615234 10.6691C0.615234 16.2794 5.16113 20.8253 10.7715 20.8253C13.1299 20.8253 15.2979 20.0245 17.0215 18.6769V19.4728C17.0215 19.7853 17.1436 20.0831 17.3633 20.3029L22.2314 25.171C22.6904 25.63 23.4326 25.63 23.8867 25.171L25.2686 23.7892C25.7275 23.3302 25.7275 22.588 25.2734 22.129ZM10.7715 16.9191C7.31934 16.9191 4.52148 14.1261 4.52148 10.6691C4.52148 7.21692 7.31445 4.41907 10.7715 4.41907C14.2236 4.41907 17.0215 7.21204 17.0215 10.6691C17.0215 14.1212 14.2285 16.9191 10.7715 16.9191Z" fill="#878787"/>
</svg>
