<svg width="22" height="26" viewBox="0 0 22 26" fill="none" xmlns="http://www.w3.org/2000/svg">
<path d="M21.2715 15.3566C21.2715 20.9669 16.7256 25.5128 11.1152 25.5128C5.50488 25.5128 0.958984 20.9669 0.958984 15.3566C0.958984 10.2784 4.68457 6.06946 9.55273 5.32239V3.63782H8.18555C7.86328 3.63782 7.59961 3.37415 7.59961 3.05188V1.09875C7.59961 0.776489 7.86328 0.512817 8.18555 0.512817H14.0449C14.3672 0.512817 14.6309 0.776489 14.6309 1.09875V3.05188C14.6309 3.37415 14.3672 3.63782 14.0449 3.63782H12.6777V5.32239C14.5088 5.60559 16.1787 6.37708 17.5459 7.50012L18.8887 6.15735C19.1182 5.92786 19.4893 5.92786 19.7188 6.15735L21.1006 7.53918C21.3301 7.76868 21.3301 8.13977 21.1006 8.36926L19.665 9.80481L19.6357 9.83411C20.6709 11.4161 21.2715 13.3156 21.2715 15.3566ZM12.6777 17.1144V9.71692C12.6777 9.39465 12.4141 9.13098 12.0918 9.13098H10.1387C9.81641 9.13098 9.55273 9.39465 9.55273 9.71692V17.1144C9.55273 17.4366 9.81641 17.7003 10.1387 17.7003H12.0918C12.4141 17.7003 12.6777 17.4366 12.6777 17.1144Z" fill="#878787"/>
</svg>
