<svg width="26" height="26" viewBox="0 0 26 26" fill="none" xmlns="http://www.w3.org/2000/svg">
<path d="M14.6103 18.9744H10.704C10.0546 18.9744 9.53217 18.4519 9.53217 17.8025V9.59937H5.24994C4.3808 9.59937 3.94623 8.54956 4.56146 7.93433L11.9882 0.502686C12.3544 0.136475 12.955 0.136475 13.3212 0.502686L20.7529 7.93433C21.3681 8.54956 20.9335 9.59937 20.0644 9.59937H15.7822V17.8025C15.7822 18.4519 15.2597 18.9744 14.6103 18.9744ZM25.1572 18.5837V24.0525C25.1572 24.7019 24.6347 25.2244 23.9853 25.2244H1.32904C0.679626 25.2244 0.157166 24.7019 0.157166 24.0525V18.5837C0.157166 17.9343 0.679626 17.4119 1.32904 17.4119H7.96967V17.8025C7.96967 19.3113 9.19525 20.5369 10.704 20.5369H14.6103C16.1191 20.5369 17.3447 19.3113 17.3447 17.8025V17.4119H23.9853C24.6347 17.4119 25.1572 17.9343 25.1572 18.5837ZM19.1025 22.8806C19.1025 22.3435 18.663 21.9041 18.1259 21.9041C17.5888 21.9041 17.1494 22.3435 17.1494 22.8806C17.1494 23.4177 17.5888 23.8572 18.1259 23.8572C18.663 23.8572 19.1025 23.4177 19.1025 22.8806ZM22.2275 22.8806C22.2275 22.3435 21.788 21.9041 21.2509 21.9041C20.7138 21.9041 20.2744 22.3435 20.2744 22.8806C20.2744 23.4177 20.7138 23.8572 21.2509 23.8572C21.788 23.8572 22.2275 23.4177 22.2275 22.8806Z" fill="white"/>
</svg>
