<svg width="26" height="22" viewBox="0 0 26 22" fill="none" xmlns="http://www.w3.org/2000/svg">
<path d="M2.17773 20.3878C2.17773 21.2521 2.87598 21.9503 3.74023 21.9503H22.4902C23.3545 21.9503 24.0527 21.2521 24.0527 20.3878V6.32532H2.17773V20.3878ZM9.99023 10.0363C9.99023 9.71399 10.2539 9.45032 10.5762 9.45032H15.6543C15.9766 9.45032 16.2402 9.71399 16.2402 10.0363V10.4269C16.2402 10.7491 15.9766 11.0128 15.6543 11.0128H10.5762C10.2539 11.0128 9.99023 10.7491 9.99023 10.4269V10.0363ZM24.0527 0.0753174H2.17773C1.31348 0.0753174 0.615234 0.77356 0.615234 1.63782V3.98157C0.615234 4.41125 0.966797 4.76282 1.39648 4.76282H24.834C25.2637 4.76282 25.6152 4.41125 25.6152 3.98157V1.63782C25.6152 0.77356 24.917 0.0753174 24.0527 0.0753174Z" fill="#878787"/>
</svg>
