<svg width="26" height="26" viewBox="0 0 26 26" fill="none" xmlns="http://www.w3.org/2000/svg">
<g clip-path="url(#clip0_596_9)">
<path d="M13.1062 1.36792C6.41885 1.36792 0.996826 6.79189 0.996826 13.4773C0.996826 20.1666 6.41885 25.5867 13.1062 25.5867C19.7936 25.5867 25.2156 20.1666 25.2156 13.4773C25.2156 6.79189 19.7936 1.36792 13.1062 1.36792ZM13.1062 6.73901C14.2388 6.73901 15.157 7.65718 15.157 8.78979C15.157 9.92241 14.2388 10.8406 13.1062 10.8406C11.9736 10.8406 11.0554 9.92241 11.0554 8.78979C11.0554 7.65718 11.9736 6.73901 13.1062 6.73901ZM15.8406 19.1414C15.8406 19.4649 15.5782 19.7273 15.2546 19.7273H10.9578C10.6342 19.7273 10.3718 19.4649 10.3718 19.1414V17.9695C10.3718 17.6459 10.6342 17.3835 10.9578 17.3835H11.5437V14.2585H10.9578C10.6342 14.2585 10.3718 13.9962 10.3718 13.6726V12.5007C10.3718 12.1771 10.6342 11.9148 10.9578 11.9148H14.0828C14.4063 11.9148 14.6687 12.1771 14.6687 12.5007V17.3835H15.2546C15.5782 17.3835 15.8406 17.6459 15.8406 17.9695V19.1414Z" fill="#444444"/>
</g>
<defs>
<clipPath id="clip0_596_9">
<rect width="25" height="25" fill="white" transform="translate(0.606201 0.977295)"/>
</clipPath>
</defs>
</svg>
