<svg width="27" height="22" viewBox="0 0 27 22" fill="none" xmlns="http://www.w3.org/2000/svg">
<path d="M12.2388 7.56257C12.033 7.56257 11.8271 7.4984 11.6646 7.3609L9.53045 5.55507L7.39629 7.3609C7.08212 7.62673 6.56212 7.62673 6.24795 7.3609C5.93379 7.09507 5.93379 6.65507 6.24795 6.38923L8.95629 4.09757C9.27045 3.83174 9.79045 3.83174 10.1046 4.09757L12.813 6.38923C13.1271 6.65507 13.1271 7.09507 12.813 7.3609C12.6505 7.4984 12.4446 7.56257 12.2388 7.56257Z" fill="white"/>
<path d="M9.5304 18.1041C9.08623 18.1041 8.7179 17.7924 8.7179 17.4166V4.58325C8.7179 4.20742 9.08623 3.89575 9.5304 3.89575C9.97456 3.89575 10.3429 4.20742 10.3429 4.58325V17.4166C10.3429 17.7924 9.97456 18.1041 9.5304 18.1041ZM18.1971 18.1041C17.9912 18.1041 17.7854 18.0399 17.6229 17.9024L14.9146 15.6108C14.6004 15.3449 14.6004 14.9049 14.9146 14.6391C15.2287 14.3733 15.7487 14.3733 16.0629 14.6391L18.1971 16.4449L20.3312 14.6391C20.6454 14.3733 21.1654 14.3733 21.4796 14.6391C21.7937 14.9049 21.7937 15.3449 21.4796 15.6108L18.7712 17.9024C18.6087 18.0399 18.4029 18.1041 18.1971 18.1041Z" fill="white"/>
<path d="M18.1971 18.1041C17.753 18.1041 17.3846 17.7924 17.3846 17.4166V4.58325C17.3846 4.20742 17.753 3.89575 18.1971 3.89575C18.6413 3.89575 19.0096 4.20742 19.0096 4.58325V17.4166C19.0096 17.7924 18.6413 18.1041 18.1971 18.1041Z" fill="white"/>
</svg>
