<svg width="25" height="21" viewBox="0 0 25 21" fill="none" xmlns="http://www.w3.org/2000/svg">
<path d="M25 7.875V17.0625C25 18.1068 24.6049 19.1083 23.9017 19.8467C23.1984 20.5852 22.2446 21 21.25 21H3.75C2.75544 21 1.80161 20.5852 1.09835 19.8467C0.395088 19.1083 0 18.1068 0 17.0625V7.875H25ZM20 13.125H16.25C15.9185 13.125 15.6005 13.2633 15.3661 13.5094C15.1317 13.7556 15 14.0894 15 14.4375C15 14.7856 15.1317 15.1194 15.3661 15.3656C15.6005 15.6117 15.9185 15.75 16.25 15.75H20C20.3315 15.75 20.6495 15.6117 20.8839 15.3656C21.1183 15.1194 21.25 14.7856 21.25 14.4375C21.25 14.0894 21.1183 13.7556 20.8839 13.5094C20.6495 13.2633 20.3315 13.125 20 13.125ZM21.25 0C22.2446 0 23.1984 0.414843 23.9017 1.15327C24.6049 1.89169 25 2.89321 25 3.9375V5.25H0V3.9375C0 2.89321 0.395088 1.89169 1.09835 1.15327C1.80161 0.414843 2.75544 0 3.75 0H21.25Z" fill="#1e90ff"/>
</svg>
