<svg width="23" height="23" viewBox="0 0 23 23" fill="none" xmlns="http://www.w3.org/2000/svg">
<path d="M8.29188 22.8311L7.83753 19.1781C7.59142 19.083 7.35932 18.9688 7.14124 18.8356C6.92315 18.7024 6.71036 18.5597 6.50288 18.4075L3.12365 19.8345L0 14.4121L2.92487 12.1861C2.90594 12.0529 2.89648 11.9247 2.89648 11.8014V11.0308C2.89648 10.9068 2.90594 10.7782 2.92487 10.645L0 8.41895L3.12365 2.99658L6.50288 4.42352C6.71112 4.27131 6.92883 4.12862 7.156 3.99543C7.38318 3.86225 7.61035 3.7481 7.83753 3.65297L8.29188 0H14.5392L14.9935 3.65297C15.2396 3.7481 15.4717 3.86225 15.6898 3.99543C15.9079 4.12862 16.1207 4.27131 16.3282 4.42352L19.7074 2.99658L22.8311 8.41895L19.9062 10.645C19.9251 10.7782 19.9346 10.9068 19.9346 11.0308V11.8014C19.9346 11.9247 19.9156 12.0529 19.8778 12.1861L22.8027 14.4121L19.679 19.8345L16.3282 18.4075C16.1199 18.5597 15.9022 18.7024 15.6751 18.8356C15.4479 18.9688 15.2207 19.083 14.9935 19.1781L14.5392 22.8311H8.29188ZM11.4723 15.411C12.5703 15.411 13.5074 15.0209 14.2836 14.2409C15.0598 13.4608 15.4479 12.519 15.4479 11.4155C15.4479 10.312 15.0598 9.37024 14.2836 8.59018C13.5074 7.81012 12.5703 7.42009 11.4723 7.42009C10.3554 7.42009 9.41336 7.81012 8.64627 8.59018C7.87918 9.37024 7.49601 10.312 7.49676 11.4155C7.49676 12.519 7.87993 13.4608 8.64627 14.2409C9.4126 15.0209 10.3546 15.411 11.4723 15.411Z" fill="#1e90ff"/>
</svg>
