<svg width="25" height="25" viewBox="0 0 25 25" fill="none" xmlns="http://www.w3.org/2000/svg">
<path d="M24.75 22.0527H0.25C0.1125 22.0527 0 22.2 0 22.3802V24.6725C0 24.8526 0.1125 25 0.25 25H24.75C24.8875 25 25 24.8526 25 24.6725V22.3802C25 22.2 24.8875 22.0527 24.75 22.0527ZM1.67812 16.9276L2.91875 18.5445C3.01562 18.6714 3.175 18.6714 3.27187 18.5445L10.6063 8.96984L13.6562 12.9528C13.8442 13.1967 14.098 13.3335 14.3625 13.3335C14.627 13.3335 14.8808 13.1967 15.0688 12.9528L23.325 2.17873C23.4219 2.05183 23.4219 1.84306 23.325 1.71616L22.0844 0.0951332C22.0374 0.0341883 21.9739 0 21.9078 0C21.8417 0 21.7782 0.0341883 21.7313 0.0951332L14.3656 9.71486L11.3125 5.73188C11.1246 5.48801 10.8708 5.35119 10.6063 5.35119C10.3417 5.35119 10.0879 5.48801 9.9 5.73188L1.67812 16.465C1.65475 16.4953 1.63619 16.5313 1.62352 16.571C1.61085 16.6107 1.60433 16.6533 1.60433 16.6963C1.60433 16.7394 1.61085 16.782 1.62352 16.8217C1.63619 16.8614 1.65475 16.8974 1.67812 16.9276Z" fill="#02F5FF"/>
</svg>
