<svg width="29" height="26" viewBox="0 0 29 26" fill="none" xmlns="http://www.w3.org/2000/svg">
<path d="M14.4729 25.425C12.1657 25.425 10.0439 24.9362 8.10747 23.9585C6.17106 22.9809 4.58485 21.6774 3.34885 20.048V23.1246H0.876839V16.2237H8.29287V18.524H5.23376C6.22256 19.9042 7.52572 21.016 9.14324 21.8595C10.7608 22.7029 12.5373 23.1246 14.4729 23.1246C16.0179 23.1246 17.4653 22.8513 18.815 22.3046C20.1647 21.7579 21.3389 21.0202 22.3376 20.0917C23.3363 19.1616 24.1294 18.0689 24.7169 16.8137C25.3044 15.5585 25.5978 14.2116 25.5969 12.7732H28.0689C28.0689 14.5176 27.7134 16.1566 27.0023 17.6901C26.2912 19.2237 25.318 20.5655 24.0828 21.7157C22.8468 22.8659 21.4048 23.7718 19.7568 24.4335C18.1088 25.0953 16.3475 25.4257 14.4729 25.425ZM13.3605 20.8243V19.3291C12.3923 19.1182 11.6041 18.7302 10.996 18.1651C10.3879 17.6 9.94005 16.857 9.65247 15.9361L11.6919 15.1885C11.9391 15.9745 12.3255 16.5641 12.8513 16.9575C13.377 17.3508 13.9793 17.5471 14.6583 17.5463C15.3381 17.5463 15.9203 17.398 16.4048 17.1012C16.8893 16.8045 17.1311 16.3394 17.1303 15.7061C17.1303 15.1502 16.8777 14.6997 16.3726 14.3546C15.8675 14.0096 14.9665 13.6166 13.6695 13.1757C12.4541 12.7732 11.5633 12.2939 10.9972 11.738C10.4312 11.1821 10.1477 10.4537 10.1469 9.5527C10.1469 8.76675 10.4406 8.05288 11.0281 7.41109C11.6157 6.76929 12.4137 6.35217 13.4223 6.15971V4.722H15.5853V6.15971C16.3269 6.21722 17.0018 6.49517 17.6099 6.99358C18.218 7.49198 18.6349 8.07665 18.8607 8.74758L16.8831 9.49519C16.7183 9.05429 16.4505 8.68509 16.0797 8.38758C15.7089 8.09007 15.1939 7.9417 14.5347 7.94246C13.8137 7.94246 13.2624 8.08624 12.8809 8.37378C12.4994 8.66132 12.3091 9.05429 12.3099 9.5527C12.3099 10.0511 12.5468 10.4441 13.0206 10.7316C13.4944 11.0192 14.3493 11.3546 15.5853 11.738C17.0685 12.2364 18.0573 12.8211 18.5517 13.492C19.0461 14.1629 19.2933 14.901 19.2933 15.7061C19.2933 16.262 19.1903 16.7508 18.9843 17.1725C18.7783 17.5943 18.5051 17.9539 18.1648 18.2514C17.8253 18.5481 17.429 18.7874 16.9758 18.9691C16.5226 19.1508 16.0385 19.29 15.5235 19.3866V20.8243H13.3605ZM0.876839 12.7732C0.876839 11.0287 1.2324 9.38976 1.94351 7.8562C2.65463 6.32265 3.62777 4.98079 4.86295 3.83062C6.09896 2.68046 7.54096 1.77489 9.18897 1.11393C10.837 0.452969 12.5983 0.122105 14.4729 0.121338C16.7801 0.121338 18.9019 0.610158 20.8383 1.5878C22.7747 2.56544 24.3609 3.86896 25.5969 5.49836V2.42167H28.0689V9.32266H20.6529V7.02233H23.712C22.7232 5.64213 21.4201 4.53031 19.8025 3.68685C18.185 2.8434 16.4085 2.42167 14.4729 2.42167C12.9279 2.42167 11.4805 2.69503 10.1308 3.24174C8.78109 3.78845 7.60688 4.52609 6.60819 5.45466C5.61032 6.38476 4.81805 7.4778 4.23136 8.73378C3.64467 9.98976 3.3505 11.3362 3.34885 12.7732H0.876839Z" fill="#1e90ff"/>
</svg>
