<svg width="28" height="22" viewBox="0 0 28 22" fill="none" xmlns="http://www.w3.org/2000/svg">
<path d="M1.38446 22C1.0264 22 0.726057 21.8827 0.483421 21.648C0.240786 21.4133 0.119889 21.1233 0.120732 20.7778C0.120732 20.4315 0.24205 20.141 0.484685 19.9063C0.72732 19.6717 1.02724 19.5547 1.38446 19.5556H26.659C27.017 19.5556 27.3174 19.6729 27.56 19.9076C27.8026 20.1422 27.9235 20.4323 27.9227 20.7778C27.9227 21.1241 27.8014 21.4146 27.5588 21.6492C27.3161 21.8839 27.0162 22.0008 26.659 22H1.38446ZM3.91191 18.3333C3.21686 18.3333 2.62165 18.0938 2.12626 17.6147C1.63088 17.1356 1.38362 16.5603 1.38446 15.8889V2.44445C1.38446 1.77222 1.63215 1.19656 2.12753 0.717446C2.62291 0.238335 3.2177 -0.000812739 3.91191 2.07508e-06H24.1315C24.8266 2.07508e-06 25.4218 0.239558 25.9172 0.718669C26.4125 1.19778 26.6598 1.77304 26.659 2.44445V15.8889C26.659 16.5611 26.4113 17.1368 25.9159 17.6159C25.4205 18.095 24.8257 18.3341 24.1315 18.3333H3.91191ZM3.91191 15.8889H24.1315V2.44445H3.91191V15.8889Z" fill="white"/>
</svg>
