<svg width="29" height="36" viewBox="0 0 29 36" fill="none" xmlns="http://www.w3.org/2000/svg">
<g filter="url(#filter0_d_17_167)">
<path d="M4.23962 27.1428V5.54282H9.38814C9.38814 4.05782 9.89226 2.78657 10.9005 1.72907C11.9088 0.671572 13.1208 0.142822 14.5367 0.142822C15.9525 0.142822 17.1645 0.671572 18.1728 1.72907C19.181 2.78657 19.6852 4.05782 19.6852 5.54282H24.8337V27.1428H4.23962ZM11.9624 5.54282H17.1109C17.1109 4.80032 16.8591 4.16492 16.3554 3.63662C15.8508 3.10742 15.2446 2.84282 14.5367 2.84282C13.8287 2.84282 13.2229 3.10742 12.7192 3.63662C12.2147 4.16492 11.9624 4.80032 11.9624 5.54282ZM6.81388 24.4428H22.2594V8.24282H19.6852V12.2928H17.1109V8.24282H11.9624V12.2928H9.38814V8.24282H6.81388V24.4428Z" fill="white"/>
</g>
<defs>
<filter id="filter0_d_17_167" x="0.239624" y="0.142822" width="28.5941" height="35" filterUnits="userSpaceOnUse" color-interpolation-filters="sRGB">
<feFlood flood-opacity="0" result="BackgroundImageFix"/>
<feColorMatrix in="SourceAlpha" type="matrix" values="0 0 0 0 0 0 0 0 0 0 0 0 0 0 0 0 0 0 127 0" result="hardAlpha"/>
<feOffset dy="4"/>
<feGaussianBlur stdDeviation="2"/>
<feComposite in2="hardAlpha" operator="out"/>
<feColorMatrix type="matrix" values="0 0 0 0 0 0 0 0 0 0 0 0 0 0 0 0 0 0 0.25 0"/>
<feBlend mode="normal" in2="BackgroundImageFix" result="effect1_dropShadow_17_167"/>
<feBlend mode="normal" in="SourceGraphic" in2="effect1_dropShadow_17_167" result="shape"/>
</filter>
</defs>
</svg>
