<svg width="25" height="22" viewBox="0 0 25 22" fill="none" xmlns="http://www.w3.org/2000/svg">
<path d="M15.6355 10.3442L13.2087 15.1978C12.9158 15.7886 12.0662 15.769 11.7976 15.1685L9.01928 9.00147L7.55444 12.5024H2.95971L11.8708 21.6089C12.2175 21.9653 12.779 21.9653 13.1257 21.6089L22.0417 12.5024H16.7146L15.6355 10.3442ZM23.1306 2.04834L23.0134 1.92627C20.4988 -0.64209 16.3826 -0.64209 13.863 1.92627L12.5007 3.32275L11.1384 1.93115C8.62377 -0.64209 4.50268 -0.64209 1.98803 1.93115L1.87084 2.04834C-0.507087 4.47998 -0.609626 8.35205 1.5144 10.9399H6.5144L8.26733 6.73096C8.531 6.10107 9.41967 6.08643 9.70287 6.71143L12.5447 13.0249L14.9372 8.24463C15.2253 7.66846 16.0456 7.66846 16.3337 8.24463L17.6814 10.9399H23.4871C25.6111 8.35205 25.5085 4.47998 23.1306 2.04834Z" fill="white"/>
</svg>
