<svg width="25" height="25" viewBox="0 0 25 25" fill="none" xmlns="http://www.w3.org/2000/svg">
<g clip-path="url(#clip0_556_69)">
<path d="M8.15527 15.1045C6.19629 15.2305 4.41846 15.9766 3.40967 18.6348C3.29492 18.938 3.01904 19.1221 2.69727 19.1221C2.15479 19.1221 0.477539 17.771 -0.000488281 17.4448C0 21.4658 1.85205 25 6.25 25C9.9541 25 12.5 22.8628 12.5 19.1313C12.5 18.9795 12.4683 18.8345 12.4526 18.6855L8.15527 15.1045ZM22.3579 0C21.6177 0 20.9238 0.327637 20.3945 0.803223C10.4136 9.71924 9.375 9.92871 9.375 12.5532C9.375 13.2222 9.53369 13.8599 9.80127 14.4429L12.9175 17.0396C13.2695 17.1274 13.6323 17.1875 14.0107 17.1875C17.0435 17.1875 18.8013 14.9673 24.3213 4.66504C24.6816 3.96436 25 3.20752 25 2.41943C25 1.00781 23.7305 0 22.3579 0Z" fill="white"/>
</g>
<defs>
<clipPath id="clip0_556_69">
<rect width="25" height="25" fill="white"/>
</clipPath>
</defs>
</svg>
