<svg width="28" height="25" viewBox="0 0 28 25" fill="none" xmlns="http://www.w3.org/2000/svg">
<path d="M14.0217 0.5H4.29102C3.18499 0.5 2.12426 0.978057 1.34218 1.829C0.560097 2.67995 0.120728 3.83408 0.120728 5.0375V17.1375C0.120728 18.3409 0.560097 19.4951 1.34218 20.346C2.12426 21.1969 3.18499 21.675 4.29102 21.675L2.90093 23.1875V24.7H4.29102L7.07122 21.6296L9.85142 21.675V14.1125H2.90093V3.525H15.4118V6.55H18.192V5.0375C18.192 3.83408 17.7526 2.67995 16.9706 1.829C16.1885 0.978057 15.1277 0.5 14.0217 0.5ZM4.29102 15.625C4.6597 15.625 5.01328 15.7844 5.27397 16.068C5.53467 16.3517 5.68112 16.7364 5.68112 17.1375C5.68112 17.5386 5.53467 17.9234 5.27397 18.207C5.01328 18.4906 4.6597 18.65 4.29102 18.65C3.92235 18.65 3.56877 18.4906 3.30808 18.207C3.04738 17.9234 2.90093 17.5386 2.90093 17.1375C2.90093 16.7364 3.04738 16.3517 3.30808 16.068C3.56877 15.7844 3.92235 15.625 4.29102 15.625ZM25.9349 9.06075C25.7403 8.45575 25.212 8.0625 24.5865 8.0625H14.5917C13.9522 8.0625 13.4379 8.45575 13.2294 9.06075L11.2415 15.2771V23.611C11.2415 24.1858 11.6864 24.7 12.2146 24.7H13.0765C13.6047 24.7 14.0217 24.1252 14.0217 23.5505V21.675H25.1425V23.5505C25.1425 24.1252 25.5734 24.7 26.1017 24.7H26.9496C27.4779 24.7 27.9227 24.1858 27.9227 23.611V15.2771L25.9349 9.06075ZM14.5917 9.575H24.5865L26.0183 14.1125H13.1599L14.5917 9.575ZM14.0217 18.65C13.653 18.65 13.2995 18.4906 13.0388 18.207C12.7781 17.9234 12.6316 17.5386 12.6316 17.1375C12.6316 16.7364 12.7781 16.3517 13.0388 16.068C13.2995 15.7844 13.653 15.625 14.0217 15.625C14.3904 15.625 14.744 15.7844 15.0047 16.068C15.2654 16.3517 15.4118 16.7364 15.4118 17.1375C15.4118 17.5386 15.2654 17.9234 15.0047 18.207C14.744 18.4906 14.3904 18.65 14.0217 18.65ZM25.1425 18.65C24.7738 18.65 24.4203 18.4906 24.1596 18.207C23.8989 17.9234 23.7524 17.5386 23.7524 17.1375C23.7524 16.7364 23.8989 16.3517 24.1596 16.068C24.4203 15.7844 24.7738 15.625 25.1425 15.625C25.5112 15.625 25.8648 15.7844 26.1255 16.068C26.3862 16.3517 26.5326 16.7364 26.5326 17.1375C26.5326 17.5386 26.3862 17.9234 26.1255 18.207C25.8648 18.4906 25.5112 18.65 25.1425 18.65Z" fill="white" fill-opacity="0.85"/>
</svg>
