<svg width="23" height="30" viewBox="0 0 23 30" fill="none" xmlns="http://www.w3.org/2000/svg">
<path d="M11.7835 25.245C12.0538 25.2203 12.2849 25.1024 12.4768 24.8916C12.6687 24.6807 12.7642 24.4273 12.7633 24.1313C12.7633 23.7847 12.662 23.5061 12.4593 23.2952C12.2565 23.0843 11.9975 22.9918 11.6822 23.0175C10.7586 23.0918 9.77881 22.8131 8.74267 22.1814C7.70653 21.5498 7.05332 20.4054 6.78302 18.7481C6.73797 18.4759 6.61994 18.2531 6.42893 18.0799C6.23792 17.9066 6.01808 17.82 5.76941 17.82C5.45406 17.82 5.19503 17.9502 4.9923 18.2106C4.78958 18.4709 4.72201 18.7739 4.78958 19.1194C5.1725 21.3716 6.07349 22.9804 7.49255 23.9456C8.91161 24.9109 10.3419 25.344 11.7835 25.245ZM11.4119 29.7C8.32597 29.7 5.75229 28.5367 3.69082 26.2102C1.62936 23.8837 0.599075 20.988 0.599976 17.523C0.599976 15.048 1.49556 12.3562 3.28673 9.44757C5.0779 6.53895 7.78627 3.38976 11.4119 0C15.0383 3.39075 17.7472 6.54043 19.5383 9.44905C21.3295 12.3577 22.2246 15.049 22.2237 17.523C22.2237 20.988 21.193 23.8837 19.1315 26.2102C17.0701 28.5367 14.4968 29.7 11.4119 29.7ZM11.4119 26.73C13.7544 26.73 15.6916 25.8573 17.2232 24.1119C18.7549 22.3666 19.5208 20.1703 19.5208 17.523C19.5208 15.7162 18.8392 13.6744 17.476 11.3974C16.1128 9.12037 14.0914 6.633 11.4119 3.93525C8.73141 6.633 6.71004 9.12037 5.34774 11.3974C3.98545 13.6744 3.30385 15.7162 3.30295 17.523C3.30295 20.1712 4.06879 22.3681 5.60047 24.1134C7.13215 25.8588 9.06928 26.731 11.4119 26.73Z" fill="white"/>
</svg>
