<svg width="25" height="25" viewBox="0 0 25 25" fill="none" xmlns="http://www.w3.org/2000/svg">
<path d="M12.5398 0.591064C5.85244 0.591064 0.43042 6.01504 0.43042 12.7004C0.43042 19.3897 5.85244 24.8098 12.5398 24.8098C19.2271 24.8098 24.6492 19.3897 24.6492 12.7004C24.6492 6.01504 19.2271 0.591064 12.5398 0.591064ZM12.5398 5.96216C13.6724 5.96216 14.5906 6.88032 14.5906 8.01294C14.5906 9.14556 13.6724 10.0637 12.5398 10.0637C11.4072 10.0637 10.489 9.14556 10.489 8.01294C10.489 6.88032 11.4072 5.96216 12.5398 5.96216ZM15.2742 18.3645C15.2742 18.6881 15.0118 18.9504 14.6882 18.9504H10.3914C10.0678 18.9504 9.80542 18.6881 9.80542 18.3645V17.1926C9.80542 16.869 10.0678 16.6067 10.3914 16.6067H10.9773V13.4817H10.3914C10.0678 13.4817 9.80542 13.2193 9.80542 12.8958V11.7239C9.80542 11.4003 10.0678 11.1379 10.3914 11.1379H13.5164C13.8399 11.1379 14.1023 11.4003 14.1023 11.7239V16.6067H14.6882C15.0118 16.6067 15.2742 16.869 15.2742 17.1926V18.3645Z" fill="#878787"/>
</svg>
