<svg width="25" height="25" viewBox="0 0 25 25" fill="none" xmlns="http://www.w3.org/2000/svg">
<g clip-path="url(#clip0_557_71)">
<path d="M10.9375 1.5625C10.9375 0.699707 10.2378 0 9.375 0H6.25C5.38721 0 4.6875 0.699707 4.6875 1.5625V6.25H10.9375V1.5625ZM23.4375 6.25C22.5747 6.25 21.875 6.94971 21.875 7.8125C21.875 8.67529 22.5747 9.375 23.4375 9.375C24.3003 9.375 25 8.67529 25 7.8125C25 6.94971 24.3003 6.25 23.4375 6.25ZM10.9375 7.8125H4.6875C2.09863 7.8125 0 9.91113 0 12.5V23.4375C0 24.3003 0.699707 25 1.5625 25H14.0625C14.9253 25 15.625 24.3003 15.625 23.4375V12.5C15.625 9.91113 13.5264 7.8125 10.9375 7.8125ZM7.8125 20.3125C5.65527 20.3125 3.90625 18.5635 3.90625 16.4062C3.90625 14.249 5.65527 12.5 7.8125 12.5C9.96973 12.5 11.7188 14.249 11.7188 16.4062C11.7188 18.5635 9.96973 20.3125 7.8125 20.3125ZM23.4375 4.6875C24.3003 4.6875 25 3.98779 25 3.125C25 2.26221 24.3003 1.5625 23.4375 1.5625C22.5747 1.5625 21.875 2.26221 21.875 3.125C21.875 3.98779 22.5747 4.6875 23.4375 4.6875ZM18.75 6.25C17.8872 6.25 17.1875 6.94971 17.1875 7.8125C17.1875 8.67529 17.8872 9.375 18.75 9.375C19.6128 9.375 20.3125 8.67529 20.3125 7.8125C20.3125 6.94971 19.6128 6.25 18.75 6.25ZM14.0625 1.5625C13.1997 1.5625 12.5 2.26221 12.5 3.125C12.5 3.98779 13.1997 4.6875 14.0625 4.6875C14.9253 4.6875 15.625 3.98779 15.625 3.125C15.625 2.26221 14.9253 1.5625 14.0625 1.5625ZM18.75 1.5625C17.8872 1.5625 17.1875 2.26221 17.1875 3.125C17.1875 3.98779 17.8872 4.6875 18.75 4.6875C19.6128 4.6875 20.3125 3.98779 20.3125 3.125C20.3125 2.26221 19.6128 1.5625 18.75 1.5625ZM23.4375 10.9375C22.5747 10.9375 21.875 11.6372 21.875 12.5C21.875 13.3628 22.5747 14.0625 23.4375 14.0625C24.3003 14.0625 25 13.3628 25 12.5C25 11.6372 24.3003 10.9375 23.4375 10.9375Z" fill="white"/>
</g>
<defs>
<clipPath id="clip0_557_71">
<rect width="25" height="25" fill="white"/>
</clipPath>
</defs>
</svg>
