<svg width="28" height="31" viewBox="0 0 28 31" fill="none" xmlns="http://www.w3.org/2000/svg">
<path d="M0.120728 30.0928V6.99282H6.29895V0.392822H21.7445V13.5928H27.9227V30.0928H15.5663V23.4928H12.4772V30.0928H0.120728ZM3.20984 26.7928H6.29895V23.4928H3.20984V26.7928ZM3.20984 20.1928H6.29895V16.8928H3.20984V20.1928ZM3.20984 13.5928H6.29895V10.2928H3.20984V13.5928ZM9.38805 20.1928H12.4772V16.8928H9.38805V20.1928ZM9.38805 13.5928H12.4772V10.2928H9.38805V13.5928ZM9.38805 6.99282H12.4772V3.69282H9.38805V6.99282ZM15.5663 20.1928H18.6554V16.8928H15.5663V20.1928ZM15.5663 13.5928H18.6554V10.2928H15.5663V13.5928ZM15.5663 6.99282H18.6554V3.69282H15.5663V6.99282ZM21.7445 26.7928H24.8336V23.4928H21.7445V26.7928ZM21.7445 20.1928H24.8336V16.8928H21.7445V20.1928Z" fill="white"/>
</svg>
