<svg width="50" height="50" viewBox="0 0 50 50" fill="none" xmlns="http://www.w3.org/2000/svg">
<path d="M46.2045 14.4737C45.1641 14.4737 44.1693 14.0466 43.4527 13.2923L41.0601 10.7738C39.6984 9.34043 38.9798 7.31486 39.7 5.47368V5.47368V5.47368C40.5693 3.24569 40.0993 0.380775 37.7255 0.0898127C37.2417 0.0305064 36.7493 0 36.25 0C33.4168 0 30.8104 0.992759 28.7195 2.65697C26.951 4.06464 24.9086 5.26316 22.6482 5.26316H13.75C6.15003 5.26316 3.05176e-05 11.7368 3.05176e-05 19.7368C3.05176e-05 25.3125 3.03599 37.8166 4.87603 44.883C5.6666 47.9191 8.41817 50 11.5555 50H17.3685C18.8218 50 20 48.8218 20 47.3684V47.2368C20 45.8561 21.1193 44.7368 22.5 44.7368V44.7368C23.8807 44.7368 25 45.8561 25 47.2368V47.3684C25 48.8218 26.1782 50 27.6316 50H33.4689C36.5947 50 39.3417 47.9275 40.1999 44.9218L42.0844 38.3213C42.6273 36.4199 44.0593 34.9003 45.9252 34.2456V34.2456C48.3662 33.3891 50 31.0843 50 28.4974V18.2692C50 16.173 48.3007 14.4737 46.2045 14.4737V14.4737ZM27.5 15.7895C27.5 17.2429 26.3218 18.4211 24.8685 18.4211H17.6316C16.1782 18.4211 15 17.2429 15 15.7895V15.7895C15 14.3361 16.1782 13.1579 17.6316 13.1579H24.8685C26.3218 13.1579 27.5 14.3361 27.5 15.7895V15.7895ZM35 23.6842C33.625 23.6842 32.5 22.5 32.5 21.0526C32.5 19.6053 33.625 18.4211 35 18.4211C36.375 18.4211 37.5 19.6053 37.5 21.0526C37.5 22.5 36.375 23.6842 35 23.6842Z" fill="#1e90ff"/>
</svg>
