<svg width="20" height="26" viewBox="0 0 20 26" fill="none" xmlns="http://www.w3.org/2000/svg">
<path d="M5.4824 18.6339C5.05808 18.2096 5.27927 18.3293 4.25583 18.0553C3.79148 17.9308 3.38328 17.6916 3.01413 17.4049L0.798803 22.8366C0.584447 23.3625 0.984838 23.9337 1.55222 23.9123L4.12497 23.8141L5.89451 25.6833C6.28513 26.0954 6.97068 25.9669 7.18503 25.4411L9.72654 19.2096C9.19724 19.5045 8.60984 19.6774 8.00242 19.6774C7.05027 19.6774 6.15574 19.3068 5.4824 18.6339ZM19.4316 22.8366L17.2163 17.4049C16.8471 17.692 16.4389 17.9308 15.9746 18.0553C14.9458 18.3307 15.1714 18.2106 14.748 18.6339C14.0747 19.3068 13.1797 19.6774 12.2275 19.6774C11.6201 19.6774 11.0327 19.5041 10.5034 19.2096L13.0449 25.4411C13.2593 25.9669 13.9453 26.0954 14.3354 25.6833L16.1054 23.8141L18.6782 23.9123C19.2456 23.9337 19.646 23.362 19.4316 22.8366ZM13.582 17.529C14.3281 16.7697 14.4135 16.8351 15.476 16.5456C16.1543 16.3605 16.6845 15.821 16.8662 15.1305C17.2314 13.7438 17.1367 13.9113 18.1333 12.8966C18.6299 12.3913 18.8237 11.6544 18.6421 10.964C18.2773 9.57827 18.2768 9.77163 18.6421 8.38443C18.8237 7.694 18.6299 6.95718 18.1333 6.45181C17.1367 5.43716 17.2314 5.60415 16.8662 4.21792C16.6845 3.52749 16.1543 2.98794 15.476 2.80288C14.1147 2.4313 14.2788 2.52847 13.2812 1.51333C12.7846 1.00796 12.0605 0.810208 11.3823 0.995267C10.0215 1.36636 10.2114 1.36685 8.84812 0.995267C8.1699 0.810208 7.44578 1.00747 6.94919 1.51333C5.95261 2.52798 6.11667 2.4313 4.75486 2.80288C4.07663 2.98794 3.54636 3.52749 3.36472 4.21792C2.99997 5.60415 3.09421 5.43716 2.09763 6.45181C1.60105 6.95718 1.40671 7.694 1.58884 8.38443C1.95359 9.76919 1.95408 9.57583 1.58884 10.9635C1.4072 11.654 1.60105 12.3908 2.09763 12.8966C3.09421 13.9113 2.99949 13.7438 3.36472 15.1305C3.54636 15.821 4.07663 16.3605 4.75486 16.5456C5.84763 16.8434 5.92917 16.7965 6.64841 17.529C7.29441 18.1867 8.30076 18.3043 9.07712 17.8131C9.38758 17.616 9.74772 17.5114 10.1155 17.5114C10.4832 17.5114 10.8433 17.616 11.1538 17.8131C11.9297 18.3043 12.936 18.1867 13.582 17.529ZM5.50876 9.51919C5.50876 6.92984 7.57126 4.83072 10.1152 4.83072C12.6592 4.83072 14.7217 6.92984 14.7217 9.51919C14.7217 12.1085 12.6592 14.2077 10.1152 14.2077C7.57126 14.2077 5.50876 12.1085 5.50876 9.51919Z" fill="white"/>
</svg>
