<svg width="25" height="20" viewBox="0 0 25 20" fill="none" xmlns="http://www.w3.org/2000/svg">
<path d="M9.39844 7.58283C9.47266 6.3797 10.0742 5.1922 11.1172 4.46564C10.9141 4.04376 10.4961 3.75079 10 3.75079H8.85156L10.0508 2.89142C10.332 2.6922 10.3984 2.30158 10.1953 2.02033L9.83203 1.51251C9.63281 1.23126 9.24219 1.16486 8.96094 1.36798L7.71094 2.26251L8.16016 1.0672C8.28125 0.742981 8.11719 0.383606 7.79297 0.262513L7.20703 0.0437626C6.88281 -0.0773311 6.52344 0.0867314 6.40234 0.41095L5.625 2.48126L4.84766 0.407044C4.72656 0.0828251 4.36719 -0.0812374 4.04297 0.0398564L3.45703 0.258606C3.13281 0.3797 2.96875 0.742981 3.09375 1.06329L3.54297 2.25861L2.28906 1.36798C2.00781 1.16876 1.61719 1.23126 1.41797 1.51251L1.05469 2.02033C0.855469 2.30158 0.917969 2.6922 1.19922 2.89142L2.39844 3.75079H1.25C0.558594 3.75079 0 4.30939 0 5.00079V18.7508C0 19.4422 0.558594 20.0008 1.25 20.0008H7.84766C7.63281 19.6297 7.5 19.2078 7.5 18.7508V10.0008C7.5 8.83283 8.3125 7.85236 9.39844 7.58283ZM8.75 18.7508C8.75 19.4422 9.30859 20.0008 10 20.0008H16.25V15.0008H8.75V18.7508ZM17.5 20.0008H23.75C24.4414 20.0008 25 19.4422 25 18.7508V15.0008H17.5V20.0008ZM23.75 8.75079H22.9531C23.0547 8.45392 23.125 8.14533 23.125 7.82111C23.125 6.43439 22.0703 5.00079 20.3086 5.00079C18.4297 5.00079 17.3438 6.86408 16.875 7.9422C16.4023 6.86408 15.3164 5.00079 13.4414 5.00079C11.6797 5.00079 10.625 6.43439 10.625 7.82111C10.625 8.14533 10.6914 8.45392 10.7969 8.75079H10C9.30859 8.75079 8.75 9.30939 8.75 10.0008V13.7508H16.25V8.75079H16.8477L16.875 8.74298L16.9023 8.75079H17.5V13.7508H25V10.0008C25 9.30939 24.4414 8.75079 23.75 8.75079ZM13.125 8.75079C13.0195 8.69611 12.9258 8.63361 12.8437 8.56329C12.5586 8.31329 12.5 8.02423 12.5 7.82111C12.5 7.4422 12.75 6.87579 13.4414 6.87579C14.1719 6.87579 14.832 7.94611 15.1797 8.75079H13.125ZM20.9063 8.56329C20.8242 8.63361 20.7305 8.69611 20.625 8.75079H18.5703C18.9141 7.95783 19.5781 6.87579 20.3086 6.87579C21 6.87579 21.25 7.4422 21.25 7.82111C21.25 8.02423 21.1914 8.31329 20.9063 8.56329Z" fill="white"/>
</svg>
