<svg width="26" height="21" viewBox="0 0 26 21" fill="none" xmlns="http://www.w3.org/2000/svg">
<path d="M10.0137 8.00958C10.0879 6.80646 10.6895 5.61896 11.7324 4.8924C11.5293 4.47052 11.1113 4.17755 10.6152 4.17755H9.4668L10.666 3.31818C10.9473 3.11896 11.0137 2.72833 10.8105 2.44708L10.4473 1.93927C10.248 1.65802 9.85742 1.59161 9.57617 1.79474L8.32617 2.68927L8.77539 1.49396C8.89648 1.16974 8.73242 0.810364 8.4082 0.68927L7.82227 0.47052C7.49805 0.349427 7.13867 0.513489 7.01758 0.837708L6.24023 2.90802L5.46289 0.833802C5.3418 0.509583 4.98242 0.34552 4.6582 0.466614L4.07227 0.685364C3.74805 0.806458 3.58398 1.16974 3.70898 1.49005L4.1582 2.68536L2.9043 1.79474C2.62305 1.59552 2.23242 1.65802 2.0332 1.93927L1.66992 2.44708C1.4707 2.72833 1.5332 3.11896 1.81445 3.31818L3.01367 4.17755H1.86523C1.17383 4.17755 0.615234 4.73615 0.615234 5.42755V19.1776C0.615234 19.869 1.17383 20.4276 1.86523 20.4276H8.46289C8.24805 20.0565 8.11523 19.6346 8.11523 19.1776V10.4276C8.11523 9.25958 8.92773 8.27911 10.0137 8.00958ZM9.36523 19.1776C9.36523 19.869 9.92383 20.4276 10.6152 20.4276H16.8652V15.4276H9.36523V19.1776ZM18.1152 20.4276H24.3652C25.0566 20.4276 25.6152 19.869 25.6152 19.1776V15.4276H18.1152V20.4276ZM24.3652 9.17755H23.5684C23.6699 8.88068 23.7402 8.57208 23.7402 8.24786C23.7402 6.86115 22.6855 5.42755 20.9238 5.42755C19.0449 5.42755 17.959 7.29083 17.4902 8.36896C17.0176 7.29083 15.9316 5.42755 14.0566 5.42755C12.2949 5.42755 11.2402 6.86115 11.2402 8.24786C11.2402 8.57208 11.3066 8.88068 11.4121 9.17755H10.6152C9.92383 9.17755 9.36523 9.73615 9.36523 10.4276V14.1776H16.8652V9.17755H17.4629L17.4902 9.16974L17.5176 9.17755H18.1152V14.1776H25.6152V10.4276C25.6152 9.73615 25.0566 9.17755 24.3652 9.17755ZM13.7402 9.17755C13.6348 9.12286 13.541 9.06036 13.459 8.99005C13.1738 8.74005 13.1152 8.45099 13.1152 8.24786C13.1152 7.86896 13.3652 7.30255 14.0566 7.30255C14.7871 7.30255 15.4473 8.37286 15.7949 9.17755H13.7402ZM21.5215 8.99005C21.4395 9.06036 21.3457 9.12286 21.2402 9.17755H19.1855C19.5293 8.38458 20.1934 7.30255 20.9238 7.30255C21.6152 7.30255 21.8652 7.86896 21.8652 8.24786C21.8652 8.45099 21.8066 8.74005 21.5215 8.99005Z" fill="white"/>
</svg>
