<svg width="26" height="19" viewBox="0 0 26 19" fill="none" xmlns="http://www.w3.org/2000/svg">
<path d="M24.834 15.6775H3.74023V0.83374C3.74023 0.4021 3.39063 0.0524902 2.95898 0.0524902H1.39648C0.964844 0.0524902 0.615234 0.4021 0.615234 0.83374V17.24C0.615234 18.1028 1.31494 18.8025 2.17773 18.8025H24.834C25.2656 18.8025 25.6152 18.4529 25.6152 18.0212V16.4587C25.6152 16.0271 25.2656 15.6775 24.834 15.6775ZM23.2715 1.61499H17.5068C16.4629 1.61499 15.9399 2.8772 16.6782 3.61548L18.2603 5.19751L14.6777 8.78052L11.0952 5.198C10.4849 4.58765 9.49561 4.58765 8.88574 5.198L5.53174 8.552C5.22656 8.85718 5.22656 9.35181 5.53174 9.65698L6.63623 10.7615C6.94141 11.0667 7.43604 11.0667 7.74121 10.7615L9.99023 8.51196L13.5728 12.0945C14.1831 12.7048 15.1724 12.7048 15.7822 12.0945L20.4697 7.40698L22.0518 8.98901C22.79 9.7273 24.0522 9.20435 24.0522 8.1604V2.39624C24.0527 1.9646 23.7031 1.61499 23.2715 1.61499Z" fill="white"/>
</svg>
