<svg width="15" height="26" viewBox="0 0 15 26" fill="none" xmlns="http://www.w3.org/2000/svg">
<path d="M10.2989 12.324L5.02544 10.781C4.41509 10.6052 3.99029 10.0339 3.99029 9.39917C3.99029 8.60327 4.63482 7.95874 5.43072 7.95874H8.66802C9.26372 7.95874 9.84966 8.1394 10.3379 8.47144C10.6358 8.67163 11.0362 8.6228 11.2901 8.37378L12.9893 6.71362C13.336 6.37671 13.2872 5.81519 12.9014 5.51733C11.7051 4.57983 10.211 4.05737 8.67779 4.05249V1.70874C8.67779 1.27905 8.32622 0.92749 7.89654 0.92749H6.33404C5.90435 0.92749 5.55279 1.27905 5.55279 1.70874V4.05249H5.43072C2.32036 4.05249 -0.179635 6.72339 0.108451 9.89233C0.313529 12.1433 2.03228 13.9744 4.20025 14.6091L9.20513 16.074C9.81548 16.2546 10.2403 16.821 10.2403 17.4558C10.2403 18.2517 9.59575 18.8962 8.79986 18.8962H5.56255C4.96685 18.8962 4.38091 18.7156 3.89263 18.3835C3.59478 18.1833 3.19439 18.2322 2.94048 18.4812L1.24126 20.1414C0.894583 20.4783 0.943412 21.0398 1.32915 21.3376C2.52544 22.2751 4.01958 22.7976 5.55279 22.8025V25.1462C5.55279 25.5759 5.90435 25.9275 6.33404 25.9275H7.89654C8.32622 25.9275 8.67779 25.5759 8.67779 25.1462V22.7927C10.9532 22.7488 13.087 21.3962 13.8389 19.2429C14.8887 16.2351 13.126 13.1492 10.2989 12.324Z" fill="white"/>
</svg>
