<svg width="26" height="16" viewBox="0 0 26 16" fill="none" xmlns="http://www.w3.org/2000/svg">
<path d="M17.5957 0.92749H14.2402C13.9277 0.92749 13.627 1.04468 13.3965 1.25562L9.55664 4.77124C9.55273 4.77515 9.54883 4.78296 9.54492 4.78687C8.89648 5.39624 8.9082 6.3689 9.46289 6.97437C9.95898 7.51733 11.002 7.66187 11.6543 7.07983C11.6582 7.07593 11.666 7.07593 11.6699 7.07202L14.791 4.21265C15.0449 3.98218 15.4434 3.9978 15.6738 4.25171C15.9082 4.50562 15.8887 4.90015 15.6348 5.13452L14.6152 6.06812L20.3027 10.6853C20.416 10.7791 20.5176 10.8806 20.6113 10.9861V3.42749L18.4785 1.29468C18.248 1.0603 17.9277 0.92749 17.5957 0.92749ZM21.8652 3.4353V12.1814C21.8652 12.8728 22.4238 13.4314 23.1152 13.4314H25.6152V3.4353H21.8652ZM23.7402 12.1814C23.3965 12.1814 23.1152 11.9001 23.1152 11.5564C23.1152 11.2126 23.3965 10.9314 23.7402 10.9314C24.084 10.9314 24.3652 11.2126 24.3652 11.5564C24.3652 11.9001 24.084 12.1814 23.7402 12.1814ZM0.615234 13.4275H3.11523C3.80664 13.4275 4.36523 12.8689 4.36523 12.1775V3.4353H0.615234V13.4275ZM2.49023 10.9314C2.83398 10.9314 3.11523 11.2126 3.11523 11.5564C3.11523 11.9001 2.83398 12.1814 2.49023 12.1814C2.14648 12.1814 1.86523 11.9001 1.86523 11.5564C1.86523 11.2087 2.14648 10.9314 2.49023 10.9314ZM19.5176 11.658L13.6855 6.92358L12.5137 7.9978C11.3535 9.0564 9.57617 8.95483 8.54102 7.82593C7.49023 6.67749 7.57227 4.90015 8.71289 3.85327L11.9082 0.92749H8.63477C8.30273 0.92749 7.98633 1.0603 7.75195 1.29468L5.61523 3.42749V12.1736H6.33008L9.86523 15.3728C10.9355 16.2439 12.5098 16.0798 13.3809 15.0095L13.3887 15.0017L14.0879 15.6072C14.709 16.115 15.627 16.0173 16.1309 15.3962L17.3574 13.8884L17.5684 14.0603C18.1035 14.4939 18.8926 14.4158 19.3262 13.8767L19.6973 13.4197C20.1348 12.8806 20.0527 12.0955 19.5176 11.658Z" fill="white"/>
</svg>
